<svg width="489" height="189" viewBox="0 0 489 189" fill="none" xmlns="http://www.w3.org/2000/svg">
<rect width="489" height="189" fill="none"/>
<path d="M176.217 133V97.99H170.097V88.36H176.217V83.14C176.217 77.74 177.567 73.9 180.267 71.62C183.027 69.34 186.747 68.2 191.427 68.2H196.377V78.01H193.227C191.247 78.01 189.837 78.4 188.997 79.18C188.157 79.96 187.737 81.28 187.737 83.14V88.36H197.367V97.99H187.737V133H176.217ZM219.811 134.08C215.611 134.08 211.861 133.06 208.561 131.02C205.261 128.98 202.651 126.19 200.731 122.65C198.811 119.11 197.851 115.09 197.851 110.59C197.851 106.09 198.811 102.1 200.731 98.62C202.651 95.08 205.261 92.32 208.561 90.34C211.861 88.3 215.611 87.28 219.811 87.28C223.171 87.28 226.111 87.91 228.631 89.17C231.151 90.43 233.191 92.2 234.751 94.48L235.381 88.36H246.271V133H235.471L234.751 126.61C233.311 128.59 231.391 130.33 228.991 131.83C226.651 133.33 223.591 134.08 219.811 134.08ZM222.241 124C225.961 124 228.991 122.77 231.331 120.31C233.731 117.79 234.931 114.58 234.931 110.68C234.931 106.78 233.731 103.6 231.331 101.14C228.991 98.62 225.961 97.36 222.241 97.36C218.581 97.36 215.551 98.59 213.151 101.05C210.751 103.51 209.551 106.69 209.551 110.59C209.551 114.49 210.751 117.7 213.151 120.22C215.551 122.74 218.581 124 222.241 124ZM272.672 134.08C268.112 134.08 264.092 133.09 260.612 131.11C257.132 129.13 254.372 126.37 252.332 122.83C250.352 119.29 249.362 115.24 249.362 110.68C249.362 106.12 250.352 102.07 252.332 98.53C254.372 94.99 257.132 92.23 260.612 90.25C264.092 88.27 268.112 87.28 272.672 87.28C278.372 87.28 283.172 88.78 287.072 91.78C290.972 94.72 293.462 98.8 294.542 104.02H282.392C281.792 101.86 280.592 100.18 278.792 98.98C277.052 97.72 274.982 97.09 272.582 97.09C269.402 97.09 266.702 98.29 264.482 100.69C262.262 103.09 261.152 106.42 261.152 110.68C261.152 114.94 262.262 118.27 264.482 120.67C266.702 123.07 269.402 124.27 272.582 124.27C274.982 124.27 277.052 123.67 278.792 122.47C280.592 121.27 281.792 119.56 282.392 117.34H294.542C293.462 122.38 290.972 126.43 287.072 129.49C283.172 132.55 278.372 134.08 272.672 134.08ZM316.841 133C312.161 133 308.411 131.86 305.591 129.58C302.771 127.3 301.361 123.25 301.361 117.43V97.99H293.711V88.36H301.361L302.711 76.39H312.881V88.36H324.941V97.99H312.881V117.52C312.881 119.68 313.331 121.18 314.231 122.02C315.191 122.8 316.811 123.19 319.091 123.19H324.671V133H316.841ZM347.909 134.08C343.589 134.08 339.689 133.09 336.209 131.11C332.789 129.13 330.059 126.4 328.019 122.92C326.039 119.38 325.049 115.3 325.049 110.68C325.049 106.06 326.069 102.01 328.109 98.53C330.149 94.99 332.879 92.23 336.299 90.25C339.779 88.27 343.679 87.28 347.999 87.28C352.259 87.28 356.099 88.27 359.519 90.25C362.999 92.23 365.729 94.99 367.709 98.53C369.749 102.01 370.769 106.06 370.769 110.68C370.769 115.3 369.749 119.38 367.709 122.92C365.729 126.4 362.999 129.13 359.519 131.11C356.039 133.09 352.169 134.08 347.909 134.08ZM347.909 124.09C350.909 124.09 353.519 122.98 355.739 120.76C357.959 118.48 359.069 115.12 359.069 110.68C359.069 106.24 357.959 102.91 355.739 100.69C353.519 98.41 350.939 97.27 347.999 97.27C344.939 97.27 342.299 98.41 340.079 100.69C337.919 102.91 336.839 106.24 336.839 110.68C336.839 115.12 337.919 118.48 340.079 120.76C342.299 122.98 344.909 124.09 347.909 124.09ZM373.87 133V88.36H384.13L385.21 96.73C386.83 93.85 389.02 91.57 391.78 89.89C394.6 88.15 397.9 87.28 401.68 87.28V99.43H398.44C395.92 99.43 393.67 99.82 391.69 100.6C389.71 101.38 388.15 102.73 387.01 104.65C385.93 106.57 385.39 109.24 385.39 112.66V133H373.87Z" fill="#5B13D1"/>
<rect width="20" height="60" rx="10" transform="matrix(-1 8.74228e-08 8.74228e-08 1 124 60)" fill="#BDFF00"/>
<rect width="20" height="60" rx="10" transform="matrix(-1 8.74228e-08 8.74228e-08 1 96 76)" fill="#3EE0F6"/>
<rect width="20" height="60" rx="10" transform="matrix(1 0 0 -1 132 104)" fill="#FF8E40"/>
</svg>
